# xmcd
#
# Track frame offsets: 
#        150
#        15911
#        38202
#        62210
#        82400
#        106782
#        130375
#        154135
#        174459
#        187290
#
# Disc length: 2822 seconds
#
# Revision: 0
# Processed by: cddbd v1.5.1PL0 Copyright (c) Steve Scherf et al.
# Submitted via: ExactAudioCopy v0.95b2
#
DISCID=860b040a
DTITLE=The Eightfold Way - The Eightfold Way
DYEAR=2004
DGENRE=Rock
TTITLE0=Breathe Out Begin
TTITLE1=Instant
TTITLE2=Takin it Back
TTITLE3=Cloud Nine
TTITLE4=Bring Me Down
TTITLE5=Stuck On a Rock
TTITLE6=Elixir
TTITLE7=Down and Out
TTITLE8=Circles
TTITLE9=The Way
EXTD=
EXTT0=
EXTT1=
EXTT2=
EXTT3=
EXTT4=
EXTT5=
EXTT6=
EXTT7=
EXTT8=
EXTT9=
PLAYORDER=
